<svg xmlns="http://www.w3.org/2000/svg" xmlns:svg="http://www.w3.org/2000/svg" id="svg13" width="288.413" height="83.888" fill="none" version="1.1" viewBox="0 0 288.413 83.888"><path id="path2" fill="#1226aa" fill-rule="evenodd" d="m 218.704,67.436 c -3.225,0 -6.271,-0.627 -9.137,-1.881 a 23.737,23.737 0 0 1 -7.524,-5.173 25.78,25.78 0 0 1 -5.106,-7.726 c -1.21,-2.956 -1.814,-6.113 -1.814,-9.472 0,-3.36 0.604,-6.495 1.814,-9.406 1.254,-2.911 2.956,-5.464 5.106,-7.659 a 22.92,22.92 0 0 1 7.658,-5.173 c 2.956,-1.254 6.136,-1.88 9.54,-1.88 3.717,0 7.166,0.716 10.346,2.15 3.18,1.432 5.845,3.47 7.995,6.113 l -5.241,5.24 c -1.388,-1.97 -3.247,-3.471 -5.576,-4.501 -2.329,-1.075 -4.837,-1.613 -7.524,-1.613 -3.225,0 -6.069,0.717 -8.532,2.15 -2.419,1.389 -4.3,3.337 -5.643,5.845 -1.344,2.508 -2.016,5.42 -2.016,8.733 0,3.315 0.672,6.248 2.016,8.801 1.388,2.508 3.247,4.48 5.576,5.912 2.329,1.433 4.971,2.15 7.927,2.15 3.135,0 5.823,-0.56 8.062,-1.68 2.284,-1.164 4.031,-2.866 5.24,-5.105 0.758,-1.433 1.279,-3.067 1.562,-4.904 h -14.998 v -7.055 h 23.245 v 1.075 c 0,5.599 -1.008,10.257 -3.023,13.974 -1.971,3.718 -4.681,6.494 -8.129,8.33 -3.449,1.837 -7.39,2.755 -11.824,2.755 z M 123.412,19.737 109.848,49.969 v 4.703 h 22.304 v 12.092 h 7.591 V 54.672 h 6.584 v -6.92 h -6.584 V 35.995 h -7.591 v 11.757 h -12.95 l 12.944,-28.015 z m 39.423,29.291 v 17.736 h -7.726 V 19.737 h 17.467 c 2.956,0 5.599,0.605 7.928,1.814 2.374,1.21 4.232,2.911 5.576,5.106 1.388,2.194 2.083,4.77 2.083,7.726 0,2.956 -0.695,5.531 -2.083,7.726 -1.344,2.194 -3.202,3.896 -5.576,5.105 -2.329,1.21 -4.972,1.814 -7.928,1.814 z m 0,-6.718 h 9.338 c 1.613,0 3.024,-0.313 4.233,-0.94 1.254,-0.672 2.239,-1.59 2.956,-2.755 0.716,-1.21 1.075,-2.62 1.075,-4.232 0,-1.613 -0.359,-3.001 -1.075,-4.166 a 7.019,7.019 0 0 0 -2.956,-2.754 c -1.209,-0.672 -2.62,-1.008 -4.233,-1.008 h -9.338 z m 100.99,-22.573 -19.349,47.027 h 8.196 l 3.615,-9.07 h 20.212 l 3.583,9.07 h 8.331 L 269.199,19.737 Z m 10.02,31.24 -7.407,-18.75 -7.473,18.75 z M 86.199,20.368 h 25.382 l -3.162,7.054 h -22.22 v 12.765 h 16.498 l -3.162,7.054 H 86.199 V 67.395 H 78.473 V 20.369 h 7.726 z" clip-rule="evenodd" style="fill:#fff;fill-opacity:1"/><g id="g6" fill="#1226aa" clip-path="url(#clip0_311_258)" transform="translate(-121.678,-25.111)" style="fill:#fff;fill-opacity:1"><path id="path4" d="M 121.677,96.199 144.306,109 V 83.456 L 121.677,70.655 Z m 0,-29.683 V 40.972 l 22.629,12.801 v 25.544 z m 26.232,12.801 20.772,-11.751 -20.772,-11.754 z m -1.8,-28.662 22.572,-12.771 -22.572,-12.773 -22.573,12.773 22.573,12.77 z" style="fill:#fff;fill-opacity:1"/></g><defs id="defs11"><clipPath id="clip0_311_258"><path id="path8" fill="#fff" d="M 0,0 H 47.003 V 83.889 H 0 Z" transform="translate(121.678,25.11)"/></clipPath></defs></svg>